<svg width="1200" height="630" viewBox="0 0 1200 630" fill="none" xmlns="http://www.w3.org/2000/svg">
  <rect width="1200" height="630" rx="32" fill="#0F172A"/>
  <rect x="44" y="44" width="1112" height="542" rx="24" fill="#111827" stroke="#38BDF8" stroke-width="4"/>
  <rect x="96" y="136" width="236" height="112" rx="16" fill="#1E293B"/>
  <rect x="368" y="136" width="236" height="112" rx="16" fill="#1E293B"/>
  <rect x="640" y="136" width="236" height="112" rx="16" fill="#1E293B"/>
  <rect x="912" y="136" width="236" height="112" rx="16" fill="#1E293B"/>
  <rect x="232" y="326" width="236" height="112" rx="16" fill="#1E293B"/>
  <rect x="504" y="326" width="236" height="112" rx="16" fill="#1E293B"/>
  <rect x="776" y="326" width="236" height="112" rx="16" fill="#1E293B"/>
  <path d="M164 248V296H236" stroke="#38BDF8" stroke-width="18" stroke-linecap="round" stroke-linejoin="round"/>
  <path d="M438 248V296H510" stroke="#38BDF8" stroke-width="18" stroke-linecap="round" stroke-linejoin="round"/>
  <path d="M710 248V296H782" stroke="#38BDF8" stroke-width="18" stroke-linecap="round" stroke-linejoin="round"/>
  <path d="M982 248V296H1054" stroke="#38BDF8" stroke-width="18" stroke-linecap="round" stroke-linejoin="round"/>
  <path d="M350 438H504" stroke="#38BDF8" stroke-width="18" stroke-linecap="round"/>
  <path d="M622 438H776" stroke="#38BDF8" stroke-width="18" stroke-linecap="round"/>
  <circle cx="164" cy="164" r="40" fill="#38BDF8"/>
  <circle cx="436" cy="164" r="40" fill="#38BDF8"/>
  <circle cx="708" cy="164" r="40" fill="#38BDF8"/>
  <circle cx="980" cy="164" r="40" fill="#38BDF8"/>
  <circle cx="350" cy="382" r="40" fill="#38BDF8"/>
  <circle cx="622" cy="382" r="40" fill="#38BDF8"/>
  <circle cx="894" cy="382" r="40" fill="#38BDF8"/>
  <text x="96" y="518" fill="#F8FAFC" font-family="Arial, Helvetica, sans-serif" font-size="58" font-weight="700">SFC Editor</text>
  <text x="96" y="568" fill="#94A3B8" font-family="Arial, Helvetica, sans-serif" font-size="28">IEC 61131-3 Sequential Function Charts</text>
</svg>
