<svg xmlns="http://www.w3.org/2000/svg" width="584" height="490" viewBox="0 0 584 490"><defs><marker id="arrowhead" markerWidth="8" markerHeight="8" refX="6" refY="3" orient="auto"><polygon points="0 0, 8 3, 0 6" fill="#374151"/></marker></defs><rect x="0" y="0" width="584" height="490" fill="#ffffff"/><path d="M 292 84 L 292 105 L 292 105 L 292 126" fill="none" stroke="#374151" stroke-width="1.5" marker-end="url(#arrowhead)"/><path d="M 208 238 L 208 259 L 208 259 L 208 280" fill="none" stroke="#374151" stroke-width="1.5" marker-end="url(#arrowhead)"/><path d="M 376 238 L 376 259 L 376 259 L 376 280" fill="none" stroke="#374151" stroke-width="1.5" marker-end="url(#arrowhead)"/><path d="M 208 170 L 208 216" fill="none" stroke="#374151" stroke-width="1.5" marker-end="url(#arrowhead)"/><path d="M 208 304 L 208 304" fill="none" stroke="#374151" stroke-width="1.5" marker-end="url(#arrowhead)"/><path d="M 376 170 L 376 216" fill="none" stroke="#374151" stroke-width="1.5" marker-end="url(#arrowhead)"/><path d="M 376 304 L 376 304" fill="none" stroke="#374151" stroke-width="1.5" marker-end="url(#arrowhead)"/><path d="M 292 132 L 292 151 L 292 151 L 292 170" fill="none" stroke="#374151" stroke-width="1.5" marker-end="url(#arrowhead)"/><path d="M 292 304 L 292 325 L 292 325 L 292 346" fill="none" stroke="#374151" stroke-width="1.5" marker-end="url(#arrowhead)"/><path d="M 292 352 L 292 381 L 292 381 L 292 410" fill="none" stroke="#374151" stroke-width="1.5" marker-end="url(#arrowhead)"/><rect x="232" y="40" width="120" height="44" fill="#ffffff" stroke="#1f2937" stroke-width="3" rx="2"/><rect x="236" y="44" width="112" height="36" fill="none" stroke="#1f2937" stroke-width="1.5" rx="1"/><text x="292" y="66" text-anchor="middle" font-size="12" fill="#111827" font-family="ui-monospace, monospace">Init</text><rect x="232" y="120" width="120" height="12" fill="#374151" stroke="#1f2937" stroke-width="1.5"/><text x="292" y="114" text-anchor="middle" font-size="11" fill="#374151" font-family="ui-monospace, monospace">StartBatch</text><line x1="40" y1="170" x2="544" y2="170" stroke="#1f2937" stroke-width="2"/><line x1="40" y1="304" x2="544" y2="304" stroke="#1f2937" stroke-width="2"/><text x="552" y="241" font-size="11" fill="#6b7280" font-family="ui-monospace, monospace">ParallelOps</text><rect x="148" y="194" width="120" height="44" fill="#ffffff" stroke="#1f2937" stroke-width="1.5" rx="2"/><text x="208" y="220" text-anchor="middle" font-size="12" fill="#111827" font-family="ui-monospace, monospace">Heat</text><rect x="148" y="274" width="120" height="12" fill="#374151" stroke="#1f2937" stroke-width="1.5"/><text x="208" y="268" text-anchor="middle" font-size="11" fill="#374151" font-family="ui-monospace, monospace">Heat.T &gt;= T#120s</text><rect x="316" y="194" width="120" height="44" fill="#ffffff" stroke="#1f2937" stroke-width="1.5" rx="2"/><text x="376" y="220" text-anchor="middle" font-size="12" fill="#111827" font-family="ui-monospace, monospace">Mix</text><rect x="316" y="274" width="120" height="12" fill="#374151" stroke="#1f2937" stroke-width="1.5"/><text x="376" y="268" text-anchor="middle" font-size="11" fill="#374151" font-family="ui-monospace, monospace">Mix.T &gt;= T#60s</text><rect x="232" y="340" width="120" height="12" fill="#374151" stroke="#1f2937" stroke-width="1.5"/><text x="292" y="334" text-anchor="middle" font-size="11" fill="#374151" font-family="ui-monospace, monospace">TRUE</text><rect x="232" y="388" width="120" height="44" fill="#ffffff" stroke="#1f2937" stroke-width="1.5" rx="2"/><text x="292" y="414" text-anchor="middle" font-size="12" fill="#111827" font-family="ui-monospace, monospace">Complete</text><g><title>Non-stored: runs while step is active</title><rect x="276" y="202" width="100" height="28" fill="#f3f4f6" stroke="#1f2937" stroke-width="1.5" rx="2"/><text x="284" y="220" font-size="11" fill="#111827" font-family="ui-monospace, monospace">N HeaterOn</text></g><g><title>Non-stored: runs while step is active</title><rect x="444" y="202" width="100" height="28" fill="#f3f4f6" stroke="#1f2937" stroke-width="1.5" rx="2"/><text x="452" y="220" font-size="11" fill="#111827" font-family="ui-monospace, monospace">N MixerOn</text></g></svg>